<?xml version="1.0" standalone="no"?>
<!DOCTYPE svg PUBLIC "-//W3C//DTD SVG 20010904//EN"
 "http://www.w3.org/TR/2001/REC-SVG-20010904/DTD/svg10.dtd">
<svg version="1.0" xmlns="http://www.w3.org/2000/svg"
 width="700.000000pt" height="700.000000pt" viewBox="0 0 700.000000 700.000000"
 preserveAspectRatio="xMidYMid meet">
<metadata>
Created by potrace 1.11, written by Peter Selinger 2001-2013
</metadata>
<g transform="translate(0.000000,700.000000) scale(0.100000,-0.100000)"
fill="#000000" stroke="none">
<path d="M960 6980 c-495 -93 -866 -472 -947 -969 -10 -56 -11 -4948 -1 -5011
24 -166 90 -337 184 -481 63 -96 218 -252 316 -317 125 -84 289 -154 413 -176
17 -3 41 -9 55 -13 39 -12 4944 -14 5015 -2 262 42 481 153 661 333 176 176
291 399 331 645 10 59 10 4937 1 5011 -17 125 -63 266 -127 386 -158 294 -429
501 -766 586 l-90 22 -2475 2 c-2340 2 -2480 1 -2570 -16z"/>
</g>
</svg>
