<svg xmlns="http://www.w3.org/2000/svg" xmlns:xl="http://www.w3.org/1999/xlink" version="1.1" width="500" height="333" xmlns:dc="http://purl.org/dc/elements/1.1/" style=""><rect id="backgroundrect" width="100%" height="100%" x="0" y="0" fill="none" stroke="none" style="" class=""/><metadata> Produced by OmniGraffle 6.6.1 <dc:date>2016-11-21 21:36:17 +0000</dc:date></metadata><defs/><g stroke="none" stroke-opacity="1" stroke-dasharray="none" fill="none" fill-opacity="1" style="" class="currentLayer"><title>Canvas 11</title><g id="svg_1" class=""><title>Layer 1</title><path d="M214.6259307861328,148.87307739257812 C208.14993286132812,148.87307739257812 203.00393676757812,154.05906677246094 203.00393676757812,160.57705688476562 L203.00393676757812,180.01705932617188 C203.00393676757812,186.53506469726562 208.14993286132812,191.80606079101562 214.6259307861328,191.80606079101562 L232.38394165039062,191.80606079101562 L224.5789337158203,184.66506958007812 L242.1099395751953,191.60806274414062 L220.87493896484375,156.9500732421875 L248.303955078125,187.18707275390625 L252.262939453125,173.01806640625 L257.3809509277344,187.18707275390625 L287.41094970703125,150.12005615234375 L263.68695068359375,191.60806274414062 L282.574951171875,183.41806030273438 L272.64996337890625,191.80606079101562 L291.7369384765625,191.80606079101562 C298.2119445800781,191.80606079101562 303.4429626464844,186.53506469726562 303.4429626464844,180.01705932617188 L303.4429626464844,160.57705688476562 C303.4429626464844,154.05906677246094 298.2119445800781,148.87307739257812 291.7369384765625,148.87307739257812 zM262.0739440917969,67.68305969238281 C263.85595703125,86.10205078125 263.4029541015625,94.34905242919922 263.0079345703125,105.08905029296875 C262.4139404296875,120.7320556640625 254.6939697265625,133.82506561279297 225.39894104003906,133.9670639038086 L213.40992736816406,133.9670639038086 C202.4379425048828,133.9670639038086 193.6449432373047,142.89407348632812 193.6449432373047,153.88906860351562 L193.6449432373047,156.1270751953125 C193.6449432373047,146.66307067871094 201.22293090820312,139.06806182861328 210.66693115234375,139.06806182861328 L295.77996826171875,139.06806182861328 C305.2529296875,139.06806182861328 312.83197021484375,146.66307067871094 312.83197021484375,156.1270751953125 L312.83197021484375,184.580078125 C312.83197021484375,194.04507446289062 305.2529296875,201.66806030273438 295.77996826171875,201.66806030273438 L210.66693115234375,201.66806030273438 C201.22293090820312,201.66806030273438 193.6449432373047,194.04507446289062 193.6449432373047,184.580078125 L193.6449432373047,186.8180694580078 C193.6449432373047,197.81405639648438 202.4379425048828,206.65606689453125 213.40992736816406,206.65606689453125 L264.42193603515625,206.65606689453125 C266.1469421386719,232.18905639648438 265.46795654296875,260.5560607910156 256.1079406738281,265.3170623779297 C292.69793701171875,262.3700408935547 321.31396484375,231.84906005859375 321.31396484375,194.41305541992188 L321.31396484375,137.8210678100586 C321.31396484375,102.42605590820312 295.751953125,73.26505279541016 262.0739440917969,67.68305969238281 " fill="#af000c" id="svg_2"/><path d="M233.4579315185547,66.7620620727539 C201.929931640625,74.5550537109375 178.6869354248047,102.89405059814453 178.6869354248047,136.9570541381836 L178.6869354248047,194.65505981445312 C178.6869354248047,231.382080078125 205.74693298339844,261.4210662841797 241.0359344482422,266.23805236816406 C209.81893920898438,258.2750549316406 186.85794067382812,229.37005615234375 186.85794067382812,194.65505981445312 L186.85794067382812,135.93706512451172 C186.85794067382812,104.14005279541016 206.1709442138672,77.16205596923828 233.4579315185547,66.7620620727539 z" fill="#af000c" id="svg_3"/></g></g></svg>