<svg xmlns="http://www.w3.org/2000/svg" xmlns:xl="http://www.w3.org/1999/xlink" version="1.1" width="500" height="333" xmlns:dc="http://purl.org/dc/elements/1.1/" style=""><rect id="backgroundrect" width="100%" height="100%" x="0" y="0" fill="none" stroke="none"/>
  <metadata> Produced by OmniGraffle 7.4.2 
    <dc:date>2017-09-15 16:01:35 +0000</dc:date>
  </metadata>
  <defs/>
  <g stroke="none" stroke-opacity="1" stroke-dasharray="none" fill="none" fill-opacity="1" style="" class="currentLayer">
    <title>OpenJ9 - Eclipse Teal / Purple 8</title>
    
      
      
      
      
      
      
      
      
    
  <g class="" id="svg_1"><path d="M105.44275665283203,184.45187377929688 C101.7132568359375,190.41845703125 96.547119140625,193.40005493164062 89.93963623046875,193.40005493164062 C83.51802062988281,193.40005493164062 78.387451171875,190.5181884765625 74.54722595214844,184.75369262695312 C70.70902252197266,178.9879150390625 68.78925323486328,171.5135498046875 68.78925323486328,162.32601928710938 C68.78925323486328,152.91912841796875 70.69023895263672,145.30520629882812 74.49220275878906,139.48556518554688 C78.29485321044922,133.66656494140625 83.42407989501953,130.75540161132812 89.8839340209961,130.75540161132812 C96.27066040039062,130.75540161132812 101.39117431640625,133.44784545898438 105.24882507324219,138.82608032226562 C109.10649108886719,144.20761108398438 111.03565979003906,151.73049926757812 111.03565979003906,161.39199829101562 C111.03565979003906,170.799560546875 109.17090606689453,178.48599243164062 105.44275665283203,184.45187377929688 M89.99532318115234,123.07630920410156 C80.6192398071289,123.07630920410156 73.08911895751953,126.77393341064453 67.40428161621094,134.1651611328125 C61.720787048339844,141.55706787109375 58.87836456298828,150.92608642578125 58.87836456298828,162.2708740234375 C58.87836456298828,173.14031982421875 61.591957092285156,182.31719970703125 67.01844024658203,189.79953002929688 C72.44426727294922,197.28384399414062 80.01062774658203,201.02597045898438 89.71820068359375,201.02597045898438 C99.57405090332031,201.02597045898438 107.24241638183594,197.08172607421875 112.72528076171875,189.196533203125 C118.2054443359375,181.31005859375 120.94654083251953,172.05868530273438 120.94654083251953,161.44784545898438 C120.94654083251953,150.39620971679688 118.12225341796875,141.2373046875 112.4749984741211,133.97171020507812 C106.82705688476562,126.70943450927734 99.3338394165039,123.07630920410156 89.99532318115234,123.07630920410156 " fill="#65c1bd" id="svg_9" opacity="1" class=""/><path d="M168.03485107421875,188.95681762695312 C165.10252380371094,192.24755859375 161.7320098876953,193.89559936523438 157.9307403564453,193.89559936523438 C154.64610290527344,193.89559936523438 151.49635314941406,192.52880859375 148.4707489013672,189.79446411132812 C145.4438018798828,187.06411743164062 143.7783660888672,183.60183715820312 143.1073455810547,179.414306640625 L143.1073455810547,163.77822875976562 C144.44937133789062,159.97491455078125 145.80413818359375,156.73867797851562 148.55397033691406,154.06951904296875 C151.3037872314453,151.40032958984375 154.40924072265625,150.0654296875 157.87904357910156,150.0654296875 C162.27151489257812,150.0654296875 165.7963409423828,151.95809936523438 168.45423889160156,155.7427978515625 C171.11080932617188,159.52752685546875 172.43939208984375,164.91238403320312 172.43939208984375,171.8980712890625 C172.43939208984375,179.98004150390625 170.96986389160156,185.6680908203125 168.03485107421875,188.95681762695312 M159.988037109375,142.550537109375 C152.17343139648438,142.550537109375 146.46241760253906,146.64703369140625 142.4363250732422,154.83602905273438 L142.4363250732422,143.71658325195312 L134.3841552734375,143.71658325195312 L134.3841552734375,218.174072265625 L143.1073455810547,218.174072265625 L143.1073455810547,191.0968017578125 C147.13343811035156,197.71487426757812 152.64247131347656,201.02554321289062 159.65455627441406,201.02554321289062 C166.18955993652344,201.02554321289062 171.536865234375,198.37103271484375 175.7085723876953,193.06460571289062 C179.8782501220703,187.75552368164062 181.96310424804688,180.58169555664062 181.96310424804688,171.541748046875 C181.96310424804688,163.157958984375 179.97689819335938,156.23077392578125 175.9239959716797,150.75881958007812 C171.86904907226562,145.28619384765625 166.58546447753906,142.550537109375 159.988037109375,142.550537109375 " fill="#65c1bd" id="svg_10" opacity="1" class=""/><path d="M200.67636108398438,166.31988525390625 C201.0434112548828,161.00149536132812 202.73301696777344,156.905029296875 205.74185180664062,153.83297729492188 C208.74867248535156,150.76028442382812 212.4123992919922,149.17874145507812 216.73171997070312,149.17874145507812 C219.94252014160156,149.17874145507812 222.69100952148438,150.00570678710938 224.98117065429688,151.70758056640625 C227.26934814453125,153.40682983398438 228.89453125,155.54415893554688 229.85342407226562,157.95803833007812 C230.81497192382812,160.37127685546875 231.32899475097656,162.99588012695312 231.40345764160156,166.31988525390625 zM234.09019470214844,150.27032470703125 C229.641357421875,145.25973510742188 223.7639617919922,142.65304565429688 216.45458984375,142.65304565429688 C209.03652954101562,142.65304565429688 202.87057495117188,145.31890869140625 197.96278381347656,150.755615234375 C193.05364990234375,156.189697265625 190.598388671875,163.29373168945312 190.598388671875,172.11624145507812 C190.598388671875,180.75531005859375 192.95901489257812,187.72177124023438 197.6849822998047,193.04812622070312 C202.4095916748047,198.37716674804688 208.59298706054688,201.03302001953125 216.2344970703125,201.03302001953125 C222.02938842773438,201.03302001953125 227.06600952148438,199.48004150390625 231.34776306152344,196.37744140625 C235.63084411621094,193.276123046875 238.50950622558594,189.35916137695312 239.9864044189453,184.62380981445312 L231.904052734375,182.97976684570312 C228.9864501953125,190.25534057617188 223.9665985107422,193.89508056640625 216.84243774414062,193.89508056640625 C212.89285278320312,193.89508056640625 209.14657592773438,192.63726806640625 205.60362243652344,189.712158203125 C202.05999755859375,186.78570556640625 200.28717041015625,180.94546508789062 200.28717041015625,172.96786499023438 L240.92784118652344,172.96786499023438 C240.817138671875,162.33108520507812 238.53768920898438,155.27957153320312 234.09019470214844,150.27032470703125 " fill="#65c1bd" id="svg_11" opacity="1" class=""/><path d="M290.3990783691406,146.37017822265625 C287.4647216796875,144.23153686523438 283.8117370605469,143.16119384765625 279.6400451660156,143.16119384765625 C272.4051513671875,143.16119384765625 266.57403564453125,147.07485961914062 261.8769226074219,154.90020751953125 L261.8769226074219,144.32791137695312 L254.49578857421875,144.32791137695312 L254.49578857421875,200.1710205078125 L262.5479431152344,200.1710205078125 L262.5479431152344,169.7105712890625 C262.5479431152344,163.97137451171875 264.12213134765625,159.34375 267.13031005859375,155.83160400390625 C270.136474609375,152.32147216796875 273.8921203613281,150.56640625 278.32080078125,150.56640625 C281.532958984375,150.56640625 284.3478698730469,151.60879516601562 286.59912109375,153.69363403320312 C288.85107421875,155.777099609375 290.0595703125,159.379638671875 290.0595703125,164.50057983398438 L290.0595703125,200.1710205078125 L298.1116943359375,200.1710205078125 L298.1116943359375,168.06524658203125 C298.1116943359375,161.08087158203125 297.54534912109375,156.25442504882812 296.4549560546875,153.58392333984375 C295.36590576171875,150.91342163085938 293.3340759277344,148.50885009765625 290.3990783691406,146.37017822265625 z" fill="#65c1bd" id="svg_12" opacity="1" class=""/><path d="M334.9212341308594,179.17996215820312 C334.9212341308594,183.28109741210938 334.596435546875,186.24542236328125 333.9643859863281,188.07760620117188 C333.3302917480469,189.9078369140625 332.08758544921875,191.3983154296875 330.24090576171875,192.5523681640625 C328.3955993652344,193.70513916015625 325.3270568847656,194.279541015625 321.43182373046875,194.279541015625 C318.69342041015625,194.279541015625 316.1327819824219,193.92385864257812 312.106689453125,193.21185302734375 L312.106689453125,200.32388305664062 C316.1327819824219,201.27056884765625 319.1208190917969,201.74591064453125 322.506103515625,201.74591064453125 C328.82843017578125,201.74591064453125 333.98919677734375,200.08456420898438 337.8179931640625,196.76522827148438 C341.64544677734375,193.44387817382812 343.6443786621094,187.58102416992188 343.6443786621094,179.17465209960938 L343.6443786621094,130.73873901367188 L334.9212341308594,130.73873901367188 z" fill="#363450" id="svg_13" opacity="1" class=""/><path d="M393.0740966796875,164.37588500976562 C389.80889892578125,167.71652221679688 385.7660827636719,169.38711547851562 380.9475402832031,169.38711547851562 C376.57049560546875,169.38711547851562 372.73492431640625,167.94586181640625 369.4362487792969,165.06393432617188 C366.1382141113281,162.1800537109375 364.4888610839844,158.2630615234375 364.4888610839844,153.30966186523438 C364.4888610839844,148.69927978515625 365.9765319824219,144.78692626953125 368.9504699707031,141.583251953125 C371.9217224121094,138.37759399414062 375.9725646972656,136.77542114257812 381.1004943847656,136.77542114257812 C386.1592712402344,136.77542114257812 390.23638916015625,138.33438110351562 393.3291015625,141.45559692382812 C396.423095703125,144.576171875 397.9698486328125,148.308349609375 397.9698486328125,152.648193359375 C397.9698486328125,157.1256103515625 396.33660888671875,161.03524780273438 393.0740966796875,164.37588500976562 M400.8920593261719,138.736572265625 C396.21044921875,132.62176513671875 389.47613525390625,129.56036376953125 380.6898498535156,129.56036376953125 C373.5127258300781,129.56036376953125 367.6070556640625,131.90045166015625 362.9764099121094,136.57864379882812 C358.343017578125,141.2581787109375 356.0286865234375,146.88568115234375 356.0286865234375,153.46319580078125 C356.0286865234375,159.93902587890625 358.2316589355469,165.37173461914062 362.64154052734375,169.7620849609375 C367.0521240234375,174.15176391601562 372.5034484863281,176.34759521484375 378.99688720703125,176.34759521484375 C388.19244384765625,176.34759521484375 395.0810546875,172.1812744140625 399.6621398925781,163.85003662109375 C399.5588073730469,173.36660766601562 397.8235778808594,180.90277099609375 394.4583740234375,186.45651245117188 C391.0905456542969,192.0115966796875 386.07470703125,194.78643798828125 379.40753173828125,194.78643798828125 C372.5390625,194.78643798828125 367.6499938964844,191.58743286132812 364.7438659667969,185.18606567382812 L357.7196960449219,187.72695922851562 C361.4102783203125,197.0733642578125 368.6055603027344,201.7462158203125 379.3068542480469,201.7462158203125 C388.465576171875,201.7462158203125 395.5259704589844,198.26467895507812 400.48211669921875,191.3009033203125 C405.4382019042969,184.33648681640625 407.9176025390625,175.22805786132812 407.9176025390625,163.97567749023438 C407.9176025390625,153.26712036132812 405.5757751464844,144.85406494140625 400.8920593261719,138.736572265625 " fill="#363450" id="svg_14" opacity="1" class=""/><path d="M293.1695861816406,205.193603515625 C296.60467529296875,211.18359375 300.89996337890625,216.82077026367188 306.05548095703125,221.92849731445312 C336.95428466796875,252.54129028320312 387.0511474609375,252.54129028320312 417.949951171875,221.92849731445312 C448.84893798828125,191.31591796875 448.84893798828125,141.68310546875 417.949951171875,111.07048797607422 C387.0511474609375,80.4577407836914 336.95428466796875,80.4577407836914 306.05548095703125,111.07048797607422 C296.91259765625,120.12860107421875 290.47509765625,130.85202026367188 286.74285888671875,142.25521850585938 L290.8463134765625,144.06524658203125 C294.3453063964844,133.14065551757812 300.4672546386719,122.86205291748047 309.2123107910156,114.1980972290039 C338.3676452636719,85.31268310546875 385.63775634765625,85.31268310546875 414.7930908203125,114.1980972290039 C443.9486389160156,143.0833740234375 443.9486389160156,189.91561889648438 414.7930908203125,218.8009033203125 C385.63775634765625,247.68630981445312 338.3676452636719,247.68630981445312 309.2123107910156,218.8009033203125 C304.4552917480469,214.0880126953125 300.47454833984375,208.89739990234375 297.2698669433594,203.38494873046875 z" fill="#65c2be" id="svg_15" opacity="1" class=""/></g></g>
</svg>